<svg width="212" height="60" viewBox="0 0 212 60" fill="none" xmlns="http://www.w3.org/2000/svg">
<path d="M112.021 25V9.66H105.989V6.8H121.433V9.66H115.401V25H112.021ZM131.476 25V22.192L131.294 21.594V16.68C131.294 15.7267 131.008 14.99 130.436 14.47C129.864 13.9327 128.997 13.664 127.836 13.664C127.056 13.664 126.284 13.7853 125.522 14.028C124.776 14.2707 124.144 14.6087 123.624 15.042L122.35 12.676C123.095 12.104 123.979 11.6793 125.002 11.402C126.042 11.1073 127.116 10.96 128.226 10.96C130.236 10.96 131.788 11.4453 132.88 12.416C133.989 13.3693 134.544 14.8513 134.544 16.862V25H131.476ZM127.108 25.182C126.068 25.182 125.158 25.0087 124.378 24.662C123.598 24.298 122.991 23.804 122.558 23.18C122.142 22.5387 121.934 21.8193 121.934 21.022C121.934 20.242 122.116 19.54 122.48 18.916C122.861 18.292 123.476 17.798 124.326 17.434C125.175 17.07 126.302 16.888 127.706 16.888H131.736V19.046H127.94C126.83 19.046 126.085 19.228 125.704 19.592C125.322 19.9387 125.132 20.372 125.132 20.892C125.132 21.4813 125.366 21.9493 125.834 22.296C126.302 22.6427 126.952 22.816 127.784 22.816C128.581 22.816 129.292 22.634 129.916 22.27C130.557 21.906 131.016 21.3687 131.294 20.658L131.84 22.608C131.528 23.4227 130.964 24.0553 130.15 24.506C129.352 24.9567 128.338 25.182 127.108 25.182ZM146.411 25.182C145.232 25.182 144.183 24.922 143.265 24.402C142.346 23.882 141.618 23.102 141.081 22.062C140.561 21.0047 140.301 19.67 140.301 18.058C140.301 16.4287 140.569 15.094 141.107 14.054C141.661 13.014 142.398 12.2427 143.317 11.74C144.253 11.22 145.284 10.96 146.411 10.96C147.78 10.96 148.985 11.2547 150.025 11.844C151.082 12.4333 151.914 13.2567 152.521 14.314C153.145 15.3713 153.457 16.6193 153.457 18.058C153.457 19.4967 153.145 20.7447 152.521 21.802C151.914 22.8593 151.082 23.6913 150.025 24.298C148.985 24.8873 147.78 25.182 146.411 25.182ZM138.715 25V5.708H141.965V14.34L141.705 18.032L141.809 21.724V25H138.715ZM146.047 22.4C146.827 22.4 147.52 22.2267 148.127 21.88C148.751 21.5333 149.245 21.0307 149.609 20.372C149.973 19.7133 150.155 18.942 150.155 18.058C150.155 17.1567 149.973 16.3853 149.609 15.744C149.245 15.0853 148.751 14.5827 148.127 14.236C147.52 13.8893 146.827 13.716 146.047 13.716C145.267 13.716 144.565 13.8893 143.941 14.236C143.317 14.5827 142.823 15.0853 142.459 15.744C142.095 16.3853 141.913 17.1567 141.913 18.058C141.913 18.942 142.095 19.7133 142.459 20.372C142.823 21.0307 143.317 21.5333 143.941 21.88C144.565 22.2267 145.267 22.4 146.047 22.4ZM162.779 25.182C161.358 25.182 160.092 24.8787 158.983 24.272C157.874 23.648 156.998 22.7987 156.357 21.724C155.716 20.6493 155.395 19.4273 155.395 18.058C155.395 16.6713 155.716 15.4493 156.357 14.392C156.998 13.3173 157.874 12.4767 158.983 11.87C160.092 11.2633 161.358 10.96 162.779 10.96C164.218 10.96 165.492 11.2633 166.601 11.87C167.728 12.4767 168.603 13.3087 169.227 14.366C169.868 15.4233 170.189 16.654 170.189 18.058C170.189 19.4273 169.868 20.6493 169.227 21.724C168.603 22.7987 167.728 23.648 166.601 24.272C165.492 24.8787 164.218 25.182 162.779 25.182ZM162.779 22.4C163.576 22.4 164.287 22.2267 164.911 21.88C165.535 21.5333 166.02 21.0307 166.367 20.372C166.731 19.7133 166.913 18.942 166.913 18.058C166.913 17.1567 166.731 16.3853 166.367 15.744C166.02 15.0853 165.535 14.5827 164.911 14.236C164.287 13.8893 163.585 13.716 162.805 13.716C162.008 13.716 161.297 13.8893 160.673 14.236C160.066 14.5827 159.581 15.0853 159.217 15.744C158.853 16.3853 158.671 17.1567 158.671 18.058C158.671 18.942 158.853 19.7133 159.217 20.372C159.581 21.0307 160.066 21.5333 160.673 21.88C161.297 22.2267 161.999 22.4 162.779 22.4ZM181.673 25V22.192L181.491 21.594V16.68C181.491 15.7267 181.205 14.99 180.633 14.47C180.061 13.9327 179.194 13.664 178.033 13.664C177.253 13.664 176.482 13.7853 175.719 14.028C174.974 14.2707 174.341 14.6087 173.821 15.042L172.547 12.676C173.292 12.104 174.176 11.6793 175.199 11.402C176.239 11.1073 177.314 10.96 178.423 10.96C180.434 10.96 181.985 11.4453 183.077 12.416C184.186 13.3693 184.741 14.8513 184.741 16.862V25H181.673ZM177.305 25.182C176.265 25.182 175.355 25.0087 174.575 24.662C173.795 24.298 173.188 23.804 172.755 23.18C172.339 22.5387 172.131 21.8193 172.131 21.022C172.131 20.242 172.313 19.54 172.677 18.916C173.058 18.292 173.674 17.798 174.523 17.434C175.372 17.07 176.499 16.888 177.903 16.888H181.933V19.046H178.137C177.028 19.046 176.282 19.228 175.901 19.592C175.52 19.9387 175.329 20.372 175.329 20.892C175.329 21.4813 175.563 21.9493 176.031 22.296C176.499 22.6427 177.149 22.816 177.981 22.816C178.778 22.816 179.489 22.634 180.113 22.27C180.754 21.906 181.214 21.3687 181.491 20.658L182.037 22.608C181.725 23.4227 181.162 24.0553 180.347 24.506C179.55 24.9567 178.536 25.182 177.305 25.182ZM180.581 9.218C180.165 9.218 179.784 9.14 179.437 8.984C179.108 8.81067 178.804 8.61133 178.527 8.386C178.267 8.14333 178.016 7.93533 177.773 7.762C177.53 7.58867 177.288 7.502 177.045 7.502C176.681 7.502 176.386 7.64067 176.161 7.918C175.936 8.19533 175.806 8.57667 175.771 9.062H174.029C174.064 7.98733 174.324 7.138 174.809 6.514C175.312 5.89 175.988 5.578 176.837 5.578C177.253 5.578 177.634 5.66467 177.981 5.838C178.328 6.01133 178.631 6.21067 178.891 6.436C179.168 6.66133 179.428 6.86067 179.671 7.034C179.914 7.20733 180.148 7.294 180.373 7.294C180.737 7.294 181.032 7.164 181.257 6.904C181.5 6.644 181.63 6.28 181.647 5.812H183.389C183.372 6.81733 183.112 7.64067 182.609 8.282C182.106 8.906 181.43 9.218 180.581 9.218ZM195.177 25.182C193.756 25.182 192.491 24.8787 191.381 24.272C190.272 23.648 189.397 22.7987 188.755 21.724C188.114 20.6493 187.793 19.4273 187.793 18.058C187.793 16.6713 188.114 15.4493 188.755 14.392C189.397 13.3173 190.272 12.4767 191.381 11.87C192.491 11.2633 193.756 10.96 195.177 10.96C196.616 10.96 197.89 11.2633 198.999 11.87C200.126 12.4767 201.001 13.3087 201.625 14.366C202.267 15.4233 202.587 16.654 202.587 18.058C202.587 19.4273 202.267 20.6493 201.625 21.724C201.001 22.7987 200.126 23.648 198.999 24.272C197.89 24.8787 196.616 25.182 195.177 25.182ZM195.177 22.4C195.975 22.4 196.685 22.2267 197.309 21.88C197.933 21.5333 198.419 21.0307 198.765 20.372C199.129 19.7133 199.311 18.942 199.311 18.058C199.311 17.1567 199.129 16.3853 198.765 15.744C198.419 15.0853 197.933 14.5827 197.309 14.236C196.685 13.8893 195.983 13.716 195.203 13.716C194.406 13.716 193.695 13.8893 193.071 14.236C192.465 14.5827 191.979 15.0853 191.615 15.744C191.251 16.3853 191.069 17.1567 191.069 18.058C191.069 18.942 191.251 19.7133 191.615 20.372C191.979 21.0307 192.465 21.5333 193.071 21.88C193.695 22.2267 194.397 22.4 195.177 22.4ZM108.329 57V38.8H111.111L122.525 52.814H121.147V38.8H124.501V57H121.719L110.305 42.986H111.683V57H108.329ZM137.62 57V54.192L137.438 53.594V48.68C137.438 47.7267 137.152 46.99 136.58 46.47C136.008 45.9327 135.142 45.664 133.98 45.664C133.2 45.664 132.429 45.7853 131.666 46.028C130.921 46.2707 130.288 46.6087 129.768 47.042L128.494 44.676C129.24 44.104 130.124 43.6793 131.146 43.402C132.186 43.1073 133.261 42.96 134.37 42.96C136.381 42.96 137.932 43.4453 139.024 44.416C140.134 45.3693 140.688 46.8513 140.688 48.862V57H137.62ZM133.252 57.182C132.212 57.182 131.302 57.0087 130.522 56.662C129.742 56.298 129.136 55.804 128.702 55.18C128.286 54.5387 128.078 53.8193 128.078 53.022C128.078 52.242 128.26 51.54 128.624 50.916C129.006 50.292 129.621 49.798 130.47 49.434C131.32 49.07 132.446 48.888 133.85 48.888H137.88V51.046H134.084C132.975 51.046 132.23 51.228 131.848 51.592C131.467 51.9387 131.276 52.372 131.276 52.892C131.276 53.4813 131.51 53.9493 131.978 54.296C132.446 54.6427 133.096 54.816 133.928 54.816C134.726 54.816 135.436 54.634 136.06 54.27C136.702 53.906 137.161 53.3687 137.438 52.658L137.984 54.608C137.672 55.4227 137.109 56.0553 136.294 56.506C135.497 56.9567 134.483 57.182 133.252 57.182ZM136.528 41.218C136.112 41.218 135.731 41.14 135.384 40.984C135.055 40.8107 134.752 40.6113 134.474 40.386C134.214 40.1433 133.963 39.9353 133.72 39.762C133.478 39.5887 133.235 39.502 132.992 39.502C132.628 39.502 132.334 39.6407 132.108 39.918C131.883 40.1953 131.753 40.5767 131.718 41.062H129.976C130.011 39.9873 130.271 39.138 130.756 38.514C131.259 37.89 131.935 37.578 132.784 37.578C133.2 37.578 133.582 37.6647 133.928 37.838C134.275 38.0113 134.578 38.2107 134.838 38.436C135.116 38.6613 135.376 38.8607 135.618 39.034C135.861 39.2073 136.095 39.294 136.32 39.294C136.684 39.294 136.979 39.164 137.204 38.904C137.447 38.644 137.577 38.28 137.594 37.812H139.336C139.319 38.8173 139.059 39.6407 138.556 40.282C138.054 40.906 137.378 41.218 136.528 41.218ZM151.125 57.182C149.703 57.182 148.438 56.8787 147.329 56.272C146.219 55.648 145.344 54.7987 144.703 53.724C144.061 52.6493 143.741 51.4273 143.741 50.058C143.741 48.6713 144.061 47.4493 144.703 46.392C145.344 45.3173 146.219 44.4767 147.329 43.87C148.438 43.2633 149.703 42.96 151.125 42.96C152.563 42.96 153.837 43.2633 154.947 43.87C156.073 44.4767 156.949 45.3087 157.573 46.366C158.214 47.4233 158.535 48.654 158.535 50.058C158.535 51.4273 158.214 52.6493 157.573 53.724C156.949 54.7987 156.073 55.648 154.947 56.272C153.837 56.8787 152.563 57.182 151.125 57.182ZM151.125 54.4C151.922 54.4 152.633 54.2267 153.257 53.88C153.881 53.5333 154.366 53.0307 154.713 52.372C155.077 51.7133 155.259 50.942 155.259 50.058C155.259 49.1567 155.077 48.3853 154.713 47.744C154.366 47.0853 153.881 46.5827 153.257 46.236C152.633 45.8893 151.931 45.716 151.151 45.716C150.353 45.716 149.643 45.8893 149.019 46.236C148.412 46.5827 147.927 47.0853 147.563 47.744C147.199 48.3853 147.017 49.1567 147.017 50.058C147.017 50.942 147.199 51.7133 147.563 52.372C147.927 53.0307 148.412 53.5333 149.019 53.88C149.643 54.2267 150.345 54.4 151.125 54.4Z" fill="white"/>
<path d="M66.6987 3.62415H88.048C93.5709 3.62415 98.048 8.1013 98.048 13.6241V50C98.048 55.5228 93.5709 60 88.048 60H66.6987V3.62415Z" fill="black"/>
<g filter="url(#filter0_d_21_57)">
<path d="M4 13.6241C4 8.1013 8.47715 3.62415 14 3.62415H35.3494V60H14C8.47715 60 4 55.5228 4 50V13.6241Z" fill="white"/>
</g>
<rect x="35.3494" y="3.62415" width="31.3494" height="56.3758" fill="#E60000"/>
<defs>
<filter id="filter0_d_21_57" x="0" y="3.62415" width="39.3494" height="64.3758" filterUnits="userSpaceOnUse" color-interpolation-filters="sRGB">
<feFlood flood-opacity="0" result="BackgroundImageFix"/>
<feColorMatrix in="SourceAlpha" type="matrix" values="0 0 0 0 0 0 0 0 0 0 0 0 0 0 0 0 0 0 127 0" result="hardAlpha"/>
<feOffset dy="4"/>
<feGaussianBlur stdDeviation="2"/>
<feComposite in2="hardAlpha" operator="out"/>
<feColorMatrix type="matrix" values="0 0 0 0 0 0 0 0 0 0 0 0 0 0 0 0 0 0 0.25 0"/>
<feBlend mode="normal" in2="BackgroundImageFix" result="effect1_dropShadow_21_57"/>
<feBlend mode="normal" in="SourceGraphic" in2="effect1_dropShadow_21_57" result="shape"/>
</filter>
</defs>
</svg>
